<svg width="26" height="26" viewBox="0 0 26 26" fill="none" xmlns="http://www.w3.org/2000/svg">
<g clip-path="url(#clip0_38_37)">
<path d="M16.276 23.8333C17.6336 23.8333 18.7985 23.762 19.7717 23.5457C20.7575 23.3267 21.6119 22.9448 22.2784 22.2783C22.9448 21.6118 23.3267 20.7574 23.5458 19.7717C23.7621 18.7984 23.8334 17.6335 23.8334 16.276V13C23.8334 11.8033 22.8634 10.8333 21.6667 10.8333H13C11.8034 10.8333 10.8334 11.8033 10.8334 13V21.6667C10.8334 22.8633 11.8034 23.8333 13 23.8333H16.276Z" fill="#F5FCFD"/>
<path d="M2.16663 16.276C2.16663 17.6335 2.23795 18.7984 2.45427 19.7717C2.67332 20.7574 3.05519 21.6118 3.72168 22.2783C4.38816 22.9448 5.24257 23.3267 6.22821 23.5457C6.3226 23.5666 6.41746 23.5863 6.51272 23.6047C7.68761 23.8317 8.66663 22.8373 8.66663 21.6407V13C8.66663 11.8033 7.69658 10.8333 6.49996 10.8333H4.33329C3.13668 10.8333 2.16663 11.8033 2.16663 13V16.276Z" fill="#F5FCFD"/>
<path d="M9.724 2.16667C8.36644 2.16667 7.20159 2.238 6.22825 2.45432C5.24261 2.67337 4.38821 3.05523 3.72172 3.72172C3.05523 4.38821 2.67336 5.24261 2.45431 6.22825C2.43633 6.30919 2.41941 6.39038 2.40352 6.47182C2.17127 7.66206 3.18384 8.66667 4.39653 8.66667H21.6407C22.8374 8.66667 23.8317 7.68765 23.6048 6.51277C23.5864 6.41751 23.5667 6.32264 23.5457 6.22825C23.3266 5.24261 22.9448 4.38821 22.2782 3.72172C21.6118 3.05523 20.7574 2.67337 19.7717 2.45432C18.7984 2.238 17.6336 2.16667 16.276 2.16667H9.724Z" fill="#F5FCFD"/>
</g>
<defs>
<clipPath id="clip0_38_37">
<rect width="26" height="26" fill="white"/>
</clipPath>
</defs>
</svg>
